<svg width="47" height="54" viewBox="0 0 47 54" fill="none" xmlns="http://www.w3.org/2000/svg">
<path fill-rule="evenodd" clip-rule="evenodd" d="M30.4097 3.51846C28.3636 2.35469 26.4278 1.87948 23.9415 1.87948C21.4787 1.87948 19.1638 2.53897 17.124 3.68261C16.9405 3.78573 16.5616 3.26271 16.0695 2.58328C15.2615 1.4678 14.1481 -0.069291 13.0922 0.050689C12.4734 1.26751 13.3893 3.06687 14.0103 4.28706C14.3524 4.95919 14.605 5.45559 14.4625 5.58208C11.083 8.58177 8.94176 13.2413 8.94176 17.982H38.879C38.879 13.0275 36.563 8.17826 32.935 5.1869C32.8352 5.10464 32.9725 4.96019 33.2117 4.70851C33.815 4.07375 35.0665 2.75693 34.798 0.035584C33.475 -0.0753934 32.1186 1.60946 31.2585 2.67786C30.8321 3.20742 30.5277 3.58553 30.4097 3.51846ZM17.9416 53.9C16.2848 53.9 14.9418 52.5573 14.9418 50.9003L14.9124 45.2672C9.21356 43.5789 8.94176 40.317 8.94176 40.317V21.8797C8.94176 20.0041 10.9414 19.8796 10.9414 19.8796L36.8792 19.9415C38.8167 19.9415 38.879 21.942 38.879 21.942V40.3792C38.879 42.8566 36.0614 44.2909 32.8765 45.1196L32.9416 50.9003C32.9416 52.5573 31.5984 53.9 29.9416 53.9C28.2848 53.9 26.9415 52.5573 26.9415 50.9003L26.9349 45.7908C24.7037 45.9609 22.879 45.9417 22.879 45.9417C22.879 45.9417 21.6315 45.9246 20.9442 45.8909L20.9418 50.9003C20.9418 52.5573 19.5986 53.9 17.9416 53.9ZM16.9417 9.94201C18.0464 9.94201 18.9419 10.8375 18.9419 11.9419C18.9419 13.0469 18.0464 13.9422 16.9417 13.9422C15.8373 13.9422 14.9418 13.0469 14.9418 11.9419C14.9418 10.8375 15.8373 9.94201 16.9417 9.94201ZM32.9418 11.9419C32.9418 10.8375 32.0462 9.94201 30.9419 9.94201C29.8372 9.94201 28.9416 10.8375 28.9416 11.9419C28.9416 13.0469 29.8372 13.9422 30.9419 13.9422C32.0462 13.9422 32.9418 13.0469 32.9418 11.9419ZM3.94185 19.9421C5.59873 19.9421 6.94182 21.2854 6.94182 22.9418V36.9418C6.94182 38.5993 5.59873 39.942 3.94185 39.942C2.28481 39.942 0.94187 38.5993 0.94187 36.9418V22.9418C0.94187 21.2854 2.28481 19.9421 3.94185 19.9421ZM46.9417 22.9418C46.9417 21.2854 45.5987 19.9421 43.9416 19.9421C42.2849 19.9421 40.9417 21.2854 40.9417 22.9418V36.9418C40.9417 38.5993 42.2849 39.942 43.9416 39.942C45.5987 39.942 46.9417 38.5993 46.9417 36.9418V22.9418Z" fill="#616161"/>
</svg>
