<svg width="60" height="56" viewBox="0 0 60 56" fill="none" xmlns="http://www.w3.org/2000/svg">
<path fill-rule="evenodd" clip-rule="evenodd" d="M44.0001 0.000344992H54.0001C57.3138 0.000344992 60.0001 2.68679 60.0001 6.00059V16.0003C60.0001 19.3139 57.3138 22.0006 54.0001 22.0006H44.0001C40.6864 22.0006 38.0001 19.3139 38.0001 16.0003V6.00059C38.0001 2.68679 40.6864 0.000344992 44.0001 0.000344992ZM48.9687 7.87531C50.6774 7.87531 52.0627 9.26051 52.0627 10.9693C52.0627 12.6779 50.6774 14.0628 48.9687 14.0628C47.2602 14.0628 45.8751 12.6779 45.8751 10.9693C45.8751 9.26051 47.2602 7.87531 48.9687 7.87531ZM28.8753 30.0004C34.9157 30.0004 39.8126 34.8349 39.8126 40.8752C39.8126 46.9158 34.9157 51.8126 28.8753 51.8126C22.8347 51.8126 17.9377 46.9158 17.9377 40.8752C17.9377 34.8349 22.8347 30.0004 28.8753 30.0004ZM38.0001 40.6883C38.0001 35.6824 33.9426 31.6251 28.9375 31.6251C23.9326 31.6251 19.8752 35.6824 19.8752 40.6883C19.8752 45.6931 23.9326 49.7506 28.9375 49.7506C33.9426 49.7506 38.0001 45.6931 38.0001 40.6883ZM33.9377 40.9378C33.9377 38.1759 31.6991 35.9382 28.9377 35.9382C26.1762 35.9382 23.9376 38.1759 23.9376 40.9378C23.9376 43.6991 26.1762 45.9373 28.9377 45.9373C31.6991 45.9373 33.9377 43.6991 33.9377 40.9378ZM12.25 18H35.8752C35.8752 24.2505 42.0002 24.0002 42.0002 24.0002L56.0001 23.9377C56.0001 26.147 54.2092 28 52.0001 28H31.875C34.1251 28 34.0366 25.4965 34.0366 25.4965L34.1251 22.3758C34.1251 20.2502 31.8577 19.9767 31.8577 19.9767L24.1249 19.9526C21.8749 19.9526 21.9497 21.8375 21.9497 21.8375L21.9635 25.8946C21.9635 27.7694 24.0002 28 24.0002 28H6.00025C3.79096 28 2.00012 26.2093 2.00012 24V22.0006L10.0731 22.0607C10.0731 22.0607 12.2749 20.1848 12.25 18ZM8.00018 16.0003H2.00012C0.895607 16.0003 -1.01328e-06 16.8957 -1.01328e-06 18C-1.01328e-06 19.1047 0.895607 20.0002 2.00012 20.0002H8.00018C9.10476 20.0002 10.0002 19.1047 10.0002 18C10.0002 16.8957 9.10476 16.0003 8.00018 16.0003ZM26.0002 22.0006H30.0001C31.1045 22.0006 32.0001 22.8955 32.0001 24C32.0001 25.1048 31.1045 25.9379 30.0001 25.9379H26.0002C24.8955 25.9379 24.0002 25.1048 24.0002 24C24.0002 22.8955 24.8955 22.0006 26.0002 22.0006ZM36.1251 30.0004C42.3751 33.2506 42.1251 40.1252 42.1251 40.1252C42.1251 51.0627 34.6877 54.0002 28.0625 54.0002C21.4376 54.0002 15.875 48.6253 15.875 40.1252C15.875 31.6251 22.0001 30.0004 22.0001 30.0004H4.00012C2.89548 30.0004 2.00012 30.8962 2.00012 32.0005V54.0002C2.00012 55.1045 2.89548 56.0005 4.00012 56.0005H54.0001C55.1047 56.0005 56.0001 55.1045 56.0001 54.0002V32.0005C56.0001 30.8962 55.1047 30.0004 54.0001 30.0004H36.1251Z" fill="#616161"/>
</svg>
