<svg width="55" height="66" viewBox="0 0 55 66" fill="none" xmlns="http://www.w3.org/2000/svg">
<path fill-rule="evenodd" clip-rule="evenodd" d="M41.4848 14.8215C38.1339 12.9133 35.4174 11.3663 30.4358 10.9097L30.4376 4.98441H32.4376C34.4375 4.98441 34.5626 3.04682 34.5626 3.04682C34.5626 1.1097 32.4376 0.984376 32.4376 0.984376H22.7499C20.5 0.984376 20.75 3.29651 20.75 3.29651C20.75 4.98441 22.6251 4.92192 22.6251 4.92192H24.6222V10.918C13.0351 10.918 0.490493 23.415 0.490493 37.9688C0.490493 52.9226 12.6133 65.046 27.5675 65.046C42.5216 65.046 54.5055 52.9226 54.5055 37.9688C54.5055 29.711 50.8515 22.3173 45.0611 17.3509L47.75 14.172L48.9376 15.1093L50.8751 13.172L45.8126 8.98451L43.9216 11.0465L45.3752 12.3753L42.4061 15.3445C42.0925 15.1676 41.7861 14.9931 41.4848 14.8215ZM42.5602 23.1114C38.7551 19.3378 33.3868 16.8872 27.5809 16.8872C21.6943 16.8872 16.3697 19.3403 12.5357 23.2068C12.8482 23.585 14.7045 25.0702 14.7045 25.0702L13.1284 27.1999C13.1284 27.1999 10.8958 24.85 10.7732 25.0184C8.42164 28.245 6.65305 32.7908 6.4564 37.048C8.19114 37.0015 10.4959 36.9775 10.4959 36.9775L10.4591 38.9698C10.4591 38.9698 6.44694 38.8118 6.45172 38.9238C6.6339 43.3552 8.17934 47.4138 10.6799 50.708C11.6054 50.1041 13.3096 48.8624 13.3096 48.8624L14.8111 50.4844C14.8111 50.4844 12.3589 52.6634 12.5907 52.8941C13.2055 53.5066 13.858 54.081 14.5449 54.6143C17.8715 57.1972 21.9993 58.808 26.4974 59.0354C26.4813 57.553 26.581 54.9369 26.581 54.9369L28.4579 54.949C28.4579 54.949 28.3467 59.0494 28.4945 59.0432C33.971 58.8101 38.8942 56.5245 42.5053 52.9275C42.8418 52.5924 40.1047 50.576 40.1047 50.576L41.2951 48.884C41.2951 48.884 44.1946 51.0305 44.3669 50.8055C46.8874 47.5079 48.4485 43.434 48.6423 38.9824C48.6504 38.7957 44.4863 38.9985 44.4863 38.9985L44.4128 36.9775C44.4128 36.9775 47.7781 36.9817 48.6341 36.9248C48.4044 32.4761 46.8082 28.3997 44.2552 25.1055C44.1021 24.9081 41.4376 27.0382 41.4376 27.0382L40.0017 25.2955C40.0017 25.2955 41.8849 23.5581 42.5602 23.1114ZM27.4063 42.9848C29.115 42.9848 30.5001 41.7241 30.5001 40.0158C30.5001 37.1404 28.5001 36.8594 28.5001 36.8594V19.9848C28.5001 19.4324 28.0524 18.9845 27.5001 18.9845C26.9479 18.9845 26.5 19.4324 26.5 19.9848V36.9219C26.5 36.9219 24.4376 37.0779 24.4376 40.0158C24.4376 41.7241 25.6975 42.9848 27.4063 42.9848Z" fill="#616161"/>
</svg>
