<svg width="62" height="59" viewBox="0 0 62 59" fill="none" xmlns="http://www.w3.org/2000/svg">
<path fill-rule="evenodd" clip-rule="evenodd" d="M59.0001 5.99623e-05H3.00003C1.34331 5.99623e-05 9.0003e-05 1.34354 9.0003e-05 3.00036V43.0001C9.0003e-05 44.6569 1.34331 46.0002 3.00003 46.0002H59.0001C60.657 46.0002 62.0001 44.6569 62.0001 43.0001V3.00036C62.0001 1.34354 60.657 5.99623e-05 59.0001 5.99623e-05ZM22.0002 52.7968V46.9953L39.9897 47.0057V52.9119C39.9897 54.8796 41.6419 55.8872 42.8371 56.6161C43.2552 56.8711 43.6174 57.092 43.8333 57.308C44.6669 58.1416 43.0002 58.9741 43.0002 58.9741H18.9376C17.1459 59.0369 18.3544 56.9742 18.3544 56.9742C18.3544 56.9742 22.0002 54.7967 22.0002 52.7968ZM4.00532 3.9533H57.9952L58.0002 8.01554V31.9536L57.9952 36.016H4.00532L4.00012 31.9536V8.01554L4.00532 3.9533ZM32.4053 36.9997C32.4541 37.838 31.8327 38.7085 30.9876 38.6255C30.9647 37.7868 31.6151 37.0097 32.4053 36.9997ZM32.1976 38.697C32.9068 38.6843 33.4184 38.9676 33.687 39.3988C33.6822 39.4061 33.6774 39.413 33.6727 39.42C33.1787 39.6199 32.7567 40.4432 32.9852 41.1889C33.1177 41.621 33.449 42.0416 33.8731 42.1766C33.837 42.3813 33.7222 42.5825 33.6368 42.7494C33.3923 43.2294 32.9824 43.9468 32.3767 44.0457C31.8555 44.1309 31.5839 43.6815 31.0091 43.7735C30.6198 43.8363 30.1223 44.1797 29.7058 44.01C29.1908 43.8003 28.7129 43.0104 28.4886 42.4921C28.3455 42.1615 28.2464 41.8052 28.1663 41.4109C27.8736 39.9681 28.6183 38.8943 29.7631 38.7186C30.251 38.6434 30.6148 38.9574 31.0018 39.0266C31.1791 39.0581 31.6204 38.8334 31.7823 38.7827C31.9207 38.754 32.0593 38.7255 32.1976 38.697Z" fill="#616161"/>
</svg>
